<svg class="chart" width="720" height="300" viewBox="0 0 720 300" role="img" aria-label="قيمة طلبات الائتمان المقبولة، 2016-2023 (مليار ريال)" xmlns="http://www.w3.org/2000/svg" style="font-family:var(--font-ar, Tajawal, Segoe UI, Tahoma, sans-serif)">
<title>قيمة طلبات الائتمان المقبولة، 2016-2023 (مليار ريال)</title><desc>انخفضت من ذروة 24.5 مليار ريال في 2018 إلى 9.4 مليارات في 2023.</desc><line x1="46" y1="30" x2="704" y2="30" stroke="var(--line-soft, #EBEEF0)" stroke-width="1"/><text x="38" y="34" font-size="11" fill="var(--text-3, #5B6672)" text-anchor="end" font-weight="400">30</text><line x1="46" y1="106" x2="704" y2="106" stroke="var(--line-soft, #EBEEF0)" stroke-width="1"/><text x="38" y="110" font-size="11" fill="var(--text-3, #5B6672)" text-anchor="end" font-weight="400">20</text><line x1="46" y1="182" x2="704" y2="182" stroke="var(--line-soft, #EBEEF0)" stroke-width="1"/><text x="38" y="186" font-size="11" fill="var(--text-3, #5B6672)" text-anchor="end" font-weight="400">10</text><line x1="46" y1="258" x2="704" y2="258" stroke="var(--line-soft, #EBEEF0)" stroke-width="1"/><text x="38" y="262" font-size="11" fill="var(--text-3, #5B6672)" text-anchor="end" font-weight="400">0</text><rect x="64.1" y="161.5" width="46.0" height="96.5" rx="4" fill="var(--teal, #1F5F6B)"/><text x="87.125" y="154.48000000000002" font-size="11.5" fill="var(--text, #17212B)" text-anchor="middle" font-weight="600">12.7</text><rect x="146.4" y="101.4" width="46.0" height="156.6" rx="4" fill="var(--teal, #1F5F6B)"/><text x="169.375" y="94.43999999999997" font-size="11.5" fill="var(--text, #17212B)" text-anchor="middle" font-weight="600">20.6</text><rect x="228.6" y="71.8" width="46.0" height="186.2" rx="4" fill="var(--teal, #1F5F6B)"/><text x="251.625" y="64.80000000000001" font-size="11.5" fill="var(--text, #17212B)" text-anchor="middle" font-weight="600">24.5</text><rect x="310.9" y="127.3" width="46.0" height="130.7" rx="4" fill="var(--teal, #1F5F6B)"/><text x="333.875" y="120.28" font-size="11.5" fill="var(--text, #17212B)" text-anchor="middle" font-weight="600">17.2</text><rect x="393.1" y="137.9" width="46.0" height="120.1" rx="4" fill="var(--teal, #1F5F6B)"/><text x="416.125" y="130.92" font-size="11.5" fill="var(--text, #17212B)" text-anchor="middle" font-weight="600">15.8</text><rect x="475.4" y="162.2" width="46.0" height="95.8" rx="4" fill="var(--teal, #1F5F6B)"/><text x="498.375" y="155.24" font-size="11.5" fill="var(--text, #17212B)" text-anchor="middle" font-weight="600">12.6</text><rect x="557.6" y="187.3" width="46.0" height="70.7" rx="4" fill="var(--teal, #1F5F6B)"/><text x="580.625" y="180.32" font-size="11.5" fill="var(--text, #17212B)" text-anchor="middle" font-weight="600">9.3</text><rect x="639.9" y="186.6" width="46.0" height="71.4" rx="4" fill="var(--teal, #1F5F6B)"/><text x="662.875" y="179.56" font-size="11.5" fill="var(--text, #17212B)" text-anchor="middle" font-weight="600">9.4</text><text x="87.125" y="286" font-size="11" fill="var(--text-3, #5B6672)" text-anchor="middle" font-weight="400">2016</text><text x="169.375" y="286" font-size="11" fill="var(--text-3, #5B6672)" text-anchor="middle" font-weight="400">2017</text><text x="251.625" y="286" font-size="11" fill="var(--text-3, #5B6672)" text-anchor="middle" font-weight="400">2018</text><text x="333.875" y="286" font-size="11" fill="var(--text-3, #5B6672)" text-anchor="middle" font-weight="400">2019</text><text x="416.125" y="286" font-size="11" fill="var(--text-3, #5B6672)" text-anchor="middle" font-weight="400">2020</text><text x="498.375" y="286" font-size="11" fill="var(--text-3, #5B6672)" text-anchor="middle" font-weight="400">2021</text><text x="580.625" y="286" font-size="11" fill="var(--text-3, #5B6672)" text-anchor="middle" font-weight="400">2022</text><text x="662.875" y="286" font-size="11" fill="var(--text-3, #5B6672)" text-anchor="middle" font-weight="400">2023</text><line x1="46" y1="258" x2="704" y2="258" stroke="var(--line, #DDE2E5)" stroke-width="1"/></svg>