<svg class="chart" width="720" height="296" viewBox="0 0 720 296" role="img" aria-label="ركائز مؤشر الحرية الاقتصادية في دول المجلس والمتوسط العالمي، إصدار 2026" xmlns="http://www.w3.org/2000/svg" style="font-family:var(--font-ar, Tajawal, Segoe UI, Tahoma, sans-serif)">
<title>ركائز مؤشر الحرية الاقتصادية في دول المجلس والمتوسط العالمي، إصدار 2026</title><desc>ركيزة حجم الحكومة أعلى بكثير من ركيزة سيادة القانون في كل دول المجلس عدا البحرين.</desc><text x="186" y="42" font-size="11" fill="var(--text, #17212B)" text-anchor="middle" font-weight="600">سيادة القانون</text><text x="302" y="42" font-size="11" fill="var(--text, #17212B)" text-anchor="middle" font-weight="600">حجم الحكومة</text><text x="418" y="42" font-size="11" fill="var(--text, #17212B)" text-anchor="middle" font-weight="600">الكفاءة التنظيمية</text><text x="534" y="42" font-size="11" fill="var(--text, #17212B)" text-anchor="middle" font-weight="600">انفتاح الأسواق</text><text x="650" y="42" font-size="11" fill="var(--text, #17212B)" text-anchor="middle" font-weight="600">الدرجة الكلية</text><text x="116" y="78" font-size="12.5" fill="var(--text, #17212B)" text-anchor="end" font-weight="400">الإمارات</text><rect x="129.0" y="59" width="114.0" height="30" rx="4" fill="#C6DCDF"/><text x="186" y="78" font-size="11.5" fill="var(--text, #17212B)" text-anchor="middle" font-weight="600">54.2</text><rect x="245.0" y="59" width="114.0" height="30" rx="4" fill="#1F5F6B"/><text x="302" y="78" font-size="11.5" fill="#FFFFFF" text-anchor="middle" font-weight="600">94.2</text><rect x="361.0" y="59" width="114.0" height="30" rx="4" fill="#6E9FA8"/><text x="418" y="78" font-size="11.5" fill="#FFFFFF" text-anchor="middle" font-weight="600">76.3</text><rect x="477.0" y="59" width="114.0" height="30" rx="4" fill="#9DC0C6"/><text x="534" y="78" font-size="11.5" fill="var(--text, #17212B)" text-anchor="middle" font-weight="600">62.9</text><rect x="593.0" y="59" width="114.0" height="30" rx="4" fill="#6E9FA8"/><text x="650" y="78" font-size="11.5" fill="var(--text, #17212B)" text-anchor="middle" font-weight="600">71.9</text><text x="116" y="110" font-size="12.5" fill="var(--text, #17212B)" text-anchor="end" font-weight="400">قطر</text><rect x="129.0" y="91" width="114.0" height="30" rx="4" fill="#C6DCDF"/><text x="186" y="110" font-size="11.5" fill="var(--text, #17212B)" text-anchor="middle" font-weight="600">53.7</text><rect x="245.0" y="91" width="114.0" height="30" rx="4" fill="#1F5F6B"/><text x="302" y="110" font-size="11.5" fill="#FFFFFF" text-anchor="middle" font-weight="600">92.1</text><rect x="361.0" y="91" width="114.0" height="30" rx="4" fill="#9DC0C6"/><text x="418" y="110" font-size="11.5" fill="var(--text, #17212B)" text-anchor="middle" font-weight="600">67.5</text><rect x="477.0" y="91" width="114.0" height="30" rx="4" fill="#9DC0C6"/><text x="534" y="110" font-size="11.5" fill="var(--text, #17212B)" text-anchor="middle" font-weight="600">67.3</text><rect x="593.0" y="91" width="114.0" height="30" rx="4" fill="#6E9FA8"/><text x="650" y="110" font-size="11.5" fill="var(--text, #17212B)" text-anchor="middle" font-weight="600">70.2</text><text x="116" y="142" font-size="12.5" fill="var(--text, #17212B)" text-anchor="end" font-weight="400">سلطنة عُمان</text><rect x="129.0" y="123" width="114.0" height="30" rx="4" fill="#E8F0F1"/><text x="186" y="142" font-size="11.5" fill="var(--text, #17212B)" text-anchor="middle" font-weight="600">49.7</text><rect x="245.0" y="123" width="114.0" height="30" rx="4" fill="#1F5F6B"/><text x="302" y="142" font-size="11.5" fill="#FFFFFF" text-anchor="middle" font-weight="600">89.9</text><rect x="361.0" y="123" width="114.0" height="30" rx="4" fill="#9DC0C6"/><text x="418" y="142" font-size="11.5" fill="var(--text, #17212B)" text-anchor="middle" font-weight="600">64.9</text><rect x="477.0" y="123" width="114.0" height="30" rx="4" fill="#6E9FA8"/><text x="534" y="142" font-size="11.5" fill="var(--text, #17212B)" text-anchor="middle" font-weight="600">69.5</text><rect x="593.0" y="123" width="114.0" height="30" rx="4" fill="#9DC0C6"/><text x="650" y="142" font-size="11.5" fill="var(--text, #17212B)" text-anchor="middle" font-weight="600">68.5</text><text x="116" y="174" font-size="12.5" fill="var(--text, #17212B)" text-anchor="end" font-weight="400">البحرين</text><rect x="129.0" y="155" width="114.0" height="30" rx="4" fill="#E8F0F1"/><text x="186" y="174" font-size="11.5" fill="var(--text, #17212B)" text-anchor="middle" font-weight="600">45.6</text><rect x="245.0" y="155" width="114.0" height="30" rx="4" fill="#C6DCDF"/><text x="302" y="174" font-size="11.5" fill="var(--text, #17212B)" text-anchor="middle" font-weight="600">58.3</text><rect x="361.0" y="155" width="114.0" height="30" rx="4" fill="#6E9FA8"/><text x="418" y="174" font-size="11.5" fill="#FFFFFF" text-anchor="middle" font-weight="600">73.4</text><rect x="477.0" y="155" width="114.0" height="30" rx="4" fill="#417F8A"/><text x="534" y="174" font-size="11.5" fill="#FFFFFF" text-anchor="middle" font-weight="600">85.6</text><rect x="593.0" y="155" width="114.0" height="30" rx="4" fill="#9DC0C6"/><text x="650" y="174" font-size="11.5" fill="var(--text, #17212B)" text-anchor="middle" font-weight="600">65.7</text><text x="116" y="206" font-size="12.5" fill="var(--text, #17212B)" text-anchor="end" font-weight="400">السعودية</text><rect x="129.0" y="187" width="114.0" height="30" rx="4" fill="#E8F0F1"/><text x="186" y="206" font-size="11.5" fill="var(--text, #17212B)" text-anchor="middle" font-weight="600">47.4</text><rect x="245.0" y="187" width="114.0" height="30" rx="4" fill="#1F5F6B"/><text x="302" y="206" font-size="11.5" fill="#FFFFFF" text-anchor="middle" font-weight="600">91.4</text><rect x="361.0" y="187" width="114.0" height="30" rx="4" fill="#9DC0C6"/><text x="418" y="206" font-size="11.5" fill="var(--text, #17212B)" text-anchor="middle" font-weight="600">64.7</text><rect x="477.0" y="187" width="114.0" height="30" rx="4" fill="#C6DCDF"/><text x="534" y="206" font-size="11.5" fill="var(--text, #17212B)" text-anchor="middle" font-weight="600">57.9</text><rect x="593.0" y="187" width="114.0" height="30" rx="4" fill="#9DC0C6"/><text x="650" y="206" font-size="11.5" fill="var(--text, #17212B)" text-anchor="middle" font-weight="600">65.4</text><text x="116" y="238" font-size="12.5" fill="var(--text, #17212B)" text-anchor="end" font-weight="400">الكويت</text><rect x="129.0" y="219" width="114.0" height="30" rx="4" fill="#E8F0F1"/><text x="186" y="238" font-size="11.5" fill="var(--text, #17212B)" text-anchor="middle" font-weight="600">44.4</text><rect x="245.0" y="219" width="114.0" height="30" rx="4" fill="#417F8A"/><text x="302" y="238" font-size="11.5" fill="#FFFFFF" text-anchor="middle" font-weight="600">77.9</text><rect x="361.0" y="219" width="114.0" height="30" rx="4" fill="#C6DCDF"/><text x="418" y="238" font-size="11.5" fill="var(--text, #17212B)" text-anchor="middle" font-weight="600">58.4</text><rect x="477.0" y="219" width="114.0" height="30" rx="4" fill="#C6DCDF"/><text x="534" y="238" font-size="11.5" fill="var(--text, #17212B)" text-anchor="middle" font-weight="600">58.6</text><rect x="593.0" y="219" width="114.0" height="30" rx="4" fill="#C6DCDF"/><text x="650" y="238" font-size="11.5" fill="var(--text, #17212B)" text-anchor="middle" font-weight="600">59.9</text><text x="116" y="270" font-size="12.5" fill="var(--text-3, #5B6672)" text-anchor="end" font-weight="600">المتوسط العالمي</text><rect x="129.0" y="251" width="114.0" height="30" rx="4" fill="#E8F0F1"/><text x="186" y="270" font-size="11.5" fill="var(--text, #17212B)" text-anchor="middle" font-weight="600">48.4</text><rect x="245.0" y="251" width="114.0" height="30" rx="4" fill="#6E9FA8"/><text x="302" y="270" font-size="11.5" fill="var(--text, #17212B)" text-anchor="middle" font-weight="600">70.5</text><rect x="361.0" y="251" width="114.0" height="30" rx="4" fill="#9DC0C6"/><text x="418" y="270" font-size="11.5" fill="var(--text, #17212B)" text-anchor="middle" font-weight="600">62.3</text><rect x="477.0" y="251" width="114.0" height="30" rx="4" fill="#C6DCDF"/><text x="534" y="270" font-size="11.5" fill="var(--text, #17212B)" text-anchor="middle" font-weight="600">57.3</text><rect x="593.0" y="251" width="114.0" height="30" rx="4" fill="#C6DCDF"/><text x="650" y="270" font-size="11.5" fill="var(--text, #17212B)" text-anchor="middle" font-weight="600">59.9</text><rect x="128" y="250" width="580.0" height="32" rx="4" fill="none" stroke="var(--navy, #0B1F33)" stroke-width="1.5" stroke-dasharray="4 3"/></svg>